<?xml version="1.0" standalone="no"?>
<!DOCTYPE svg PUBLIC "-//W3C//DTD SVG 20010904//EN"
 "http://www.w3.org/TR/2001/REC-SVG-20010904/DTD/svg10.dtd">
<svg version="1.0" xmlns="http://www.w3.org/2000/svg"
 width="80" height="80" viewBox="0 0 322.000000 396.000000"
 preserveAspectRatio="xMidYMid meet">

<g transform="translate(0.000000,396.000000) scale(0.100000,-0.100000)"
fill="#FA2421" stroke="none">
<path d="M1410 3615 c-455 -79 -819 -374 -994 -805 -98 -241 -113 -559 -39
-835 21 -78 118 -283 178 -376 128 -198 953 -1398 981 -1427 26 -26 40 -32 74
-32 23 0 50 4 60 10 18 9 945 1357 1023 1487 119 196 180 379 197 587 31 389
-91 734 -363 1023 -167 177 -446 321 -712 367 -107 19 -299 19 -405 1z m-8
-765 c63 -23 153 -98 189 -156 l21 -34 30 45 c84 127 252 197 400 166 132 -27
241 -112 296 -229 25 -52 27 -68 27 -177 0 -135 -19 -214 -81 -338 -115 -229
-370 -498 -612 -643 -31 -19 -59 -34 -62 -34 -16 0 -189 123 -277 197 -285
239 -454 517 -479 785 -7 80 9 166 46 237 25 49 113 137 162 162 103 53 232
60 340 19z"/>
</g>
</svg>
